<?xml version="1.0" encoding="UTF-8" standalone="no"?>
<!-- Created with clker.com Crayon tracing tool http://www.clker.com) -->

<svg
   xmlns:dc="http://purl.org/dc/elements/1.1/"
   xmlns:cc="http://creativecommons.org/ns#"
   xmlns:rdf="http://www.w3.org/1999/02/22-rdf-syntax-ns#"
   xmlns:svg="http://www.w3.org/2000/svg"
   xmlns="http://www.w3.org/2000/svg"
   xmlns:sodipodi="http://sodipodi.sourceforge.net/DTD/sodipodi-0.dtd"
   xmlns:inkscape="http://www.inkscape.org/namespaces/inkscape"
   width="228.5"
   height="421.39999"
   id="svg2"
   version="1.1"
   inkscape:version="0.46+devel 22040"
   sodipodi:docname="credit-report.svg">
  <metadata
     id="metadata19">
    <rdf:RDF>
      <cc:Work
         rdf:about="">
        <dc:format>image/svg+xml</dc:format>
        <dc:type
           rdf:resource="http://purl.org/dc/dcmitype/StillImage" />
        <dc:title></dc:title>
      </cc:Work>
    </rdf:RDF>
  </metadata>
  <defs
     id="defs17">
    <inkscape:perspective
       sodipodi:type="inkscape:persp3d"
       inkscape:vp_x="0 : 241.5 : 1"
       inkscape:vp_y="0 : 1000 : 0"
       inkscape:vp_z="292 : 241.5 : 1"
       inkscape:persp3d-origin="146 : 161 : 1"
       id="perspective21" />
  </defs>
  <sodipodi:namedview
     pagecolor="#ffffff"
     bordercolor="#666666"
     borderopacity="1"
     objecttolerance="10"
     gridtolerance="10"
     guidetolerance="10"
     inkscape:pageopacity="0"
     inkscape:pageshadow="2"
     inkscape:window-width="1280"
     inkscape:window-height="751"
     id="namedview15"
     showgrid="false"
     inkscape:zoom="1.3820058"
     inkscape:cx="129.68558"
     inkscape:cy="257.45256"
     inkscape:window-x="-4"
     inkscape:window-y="-4"
     inkscape:window-maximized="1"
     inkscape:current-layer="svg2" />
  <g
     id="g2827"
     transform="translate(-14.5,-12.6)">
    <path
       id="path2"
       d="m 131.25,359 0.75,1 0.75,7.5 q 0.75,7.5 4.25,16 3.5,8.5 4.75,11 l 1.25,2.5 6,-1.5 q 6,-1.5 6.5,-3.25 0.5,-1.75 1.5,-1.25 l 1,0.5 -0.25,1.75 q -0.25,1.75 -2,2.75 -1.75,1 -3.25,3.25 -1.5,2.25 3,2.75 4.5,0.5 5.5,0.25 l 1,-0.25 1.5,1.25 q 1.5,1.25 8.25,2.5 l 6.75,1.25 -0.25,2 -0.25,2 -17,-0.75 q -17,-0.75 -18,-0.5 l -1,0.25 -0.75,3.5 q -0.75,3.5 -7,5.75 -6.25,2.25 -6.5,2.5 -0.25,0.25 -2,-1.75 l -1.75,-2 4,0.25 q 4,0.25 5.25,-3.5 1.25,-3.75 -1,-8 -2.25,-4.25 -5.25,-6 -3,-1.75 -4,-3.5 l -1,-1.75 3.5,-1.75 q 3.5,-1.75 0,-20.25 L 122,355 l 1.5,0.25 q 1.5,0.25 2.5,1.5 l 1,1.25 1.75,0 q 1.75,0 2.5,1 z"
       style="fill:#ffccaa;fill-rule:evenodd;stroke:#000000;stroke-width:2px;stroke-linecap:butt;stroke-linejoin:miter;stroke-opacity:1" />
    <path
       id="path4"
       d="m 173,358.5 1,1.5 3.75,9 q 3.75,9 11,21.25 l 7.25,12.25 7.5,1 q 7.5,1 10.75,-0.25 3.25,-1.25 4,-3.5 Q 219,397.5 220,398 l 1,0.5 0.25,1.25 Q 221.5,401 220,404 q -1.5,3 -4.75,4.75 -3.25,1.75 -5.75,2.75 l -2.5,1 6.75,5.75 q 6.75,5.75 7,10.25 l 0.25,4.5 -1.5,0 q -1.5,0 -3,-3.75 -1.5,-3.75 -6,-5.25 -4.5,-1.5 -10.5,-5 -6,-3.5 -8.5,-4 l -2.5,-0.5 -10.5,4.5 q -10.5,4.5 -15.5,4.5 l -5,0 3,-1 q 3,-1 9.25,-4.75 6.25,-3.75 7,-5.25 l 0.75,-1.5 0.25,-2 0.25,-2 -6.75,-1.25 Q 165,404.5 163.5,403.25 L 162,402 l 7.5,-2 q 7.5,-2 7.25,-5.5 -0.25,-3.5 -3.25,-10.5 -3,-7 -4.25,-9.75 -1.25,-2.75 -4.25,-9 l -3,-6.25 3.25,-0.5 3.25,-0.5 1.75,-0.5 q 1.75,-0.5 2.75,1 z"
       style="fill:#ffccaa;fill-rule:evenodd;stroke:#000000;stroke-width:2px;stroke-linecap:butt;stroke-linejoin:miter;stroke-opacity:1" />
    <path
       id="path6"
       d="M 183.5,310.75 194,308 l -1.75,7 q -1.75,7 -8.75,20 -7,13 -8.25,19 l -1.25,6 -1,-1.5 q -1,-1.5 -2.75,-1 l -1.75,0.5 -3.25,0.5 -3.25,0.5 0,-1 q 0,-1 -3,-2.5 -3,-1.5 -3.75,-2 L 154.5,353 153,349 q -1.5,-4 -2.75,-9.5 L 149,334 l 3.25,-4 q 3.25,-4 7,-6.75 3.75,-2.75 8.75,-6.25 5,-3.5 15.5,-6.25 z"
       style="fill:#ffaacc;fill-rule:evenodd;stroke:#000000;stroke-width:2px;stroke-linecap:butt;stroke-linejoin:miter;stroke-opacity:1" />
    <path
       id="path8"
       d="M 183.75,41.5 186,39 l -0.25,7 q -0.25,7 -0.25,8.5 l 0,1.5 3.25,5.25 q 3.25,5.25 5.5,8 2.25,2.75 3.5,3.25 1.25,0.5 1.75,5.25 0.5,4.75 2,4.75 l 1.5,0 1.75,-1.75 q 1.75,-1.75 2.5,-8 0.75,-6.25 1.5,-7 L 209.5,65 210.25,64.5 211,64 l 5.5,1 5.5,1 -1.75,6 q -1.75,6 -1.5,14.75 l 0.25,8.75 1.75,2.25 q 1.75,2.25 1,5.25 -0.75,3 1,21.5 1.75,18.5 7.25,43 5.5,24.5 6,26.5 0.5,2 0,25.5 -0.5,23.5 -6.25,33.25 -5.75,9.75 -12,18 -6.25,8.25 -10.25,15.75 -4,7.5 -4.5,9.5 l -0.5,2 -3.75,5 -3.75,5 -0.5,0 -0.5,0 -10.5,2.75 Q 173,313.5 168,317 q -5,3.5 -8.75,6.25 -3.75,2.75 -7,6.75 l -3.25,4 -2.75,2 q -2.75,2 -5.5,8 -2.75,6 -3.75,6 -1,0 -3,5 l -2,5 -0.75,-1 q -0.75,-1 -2.5,-1 l -1.75,0 -1,-1.25 q -1,-1.25 -2.5,-1.5 L 122,355 l -0.75,-2 q -0.75,-2 -3.25,-5 l -2.5,-3 -0.5,-9.5 -0.5,-9.5 -4.25,-2.75 q -4.25,-2.75 -6.25,-5 -2,-2.25 -6,-1 -4,1.25 -5.75,3 -1.75,1.75 -3,2.5 L 88,323.5 87.25,322.75 Q 86.5,322 84.75,307.5 L 83,293 l -2,0.25 q -2,0.25 -5.75,-3.5 Q 71.5,286 71.25,281 L 71,276 65,274.25 Q 59,272.5 47,269 35,265.5 33.5,263.75 L 32,262 l 1.5,-6 1.5,-6 -1,-0.25 Q 33,249.5 28,246 23,242.5 19.25,238.25 L 15.5,234 l 0,-3.5 q 0,-3.5 2.5,-7.5 l 2.5,-4 -1,-7 q -1,-7 0,-9 l 1,-2 -1,-9 q -1,-9 0,-10.5 l 1,-1.5 3.25,-1.25 Q 27,177.5 30.5,176.5 l 3.5,-1 -0.75,-2.25 Q 32.5,171 32.25,170 32,169 32.25,161.5 32.5,154 33,153 l 0.5,-1 6,-4.5 6,-4.5 4.25,3.25 q 4.25,3.25 8,7.5 3.75,4.25 9.5,12 5.75,7.75 14.5,22 Q 90.5,202 92.5,206 q 2,4 5.25,7.25 l 3.25,3.25 3.5,-1.5 q 3.5,-1.5 11.25,-7.25 7.75,-5.75 12,-8.25 L 132,197 137.75,181.5 Q 143.5,166 146,154 q 2.5,-12 9,-34.5 6.5,-22.5 10,-35.5 3.5,-13 2.75,-13.75 L 167,69.5 168.25,68.25 Q 169.5,67 175.5,55.5 q 6,-11.5 8.25,-14 z"
       style="fill:#ffaacc;fill-rule:evenodd;stroke:#000000;stroke-width:2px;stroke-linecap:butt;stroke-linejoin:miter;stroke-opacity:1" />
    <path
       id="path10"
       d="M 226.5,48.25 227,48 l 0.5,0.25 q 0.5,0.25 1.75,8.5 1.25,8.25 -3,8.75 L 222,66 222.5,64.75 223,63.5 222.75,61.75 Q 222.5,60 224,54.5 q 1.5,-5.5 1.75,-5.75 l 0.25,-0.25 0.5,-0.25 z"
       style="fill:#ff0000;fill-rule:evenodd;stroke:#000000;stroke-width:2px;stroke-linecap:butt;stroke-linejoin:miter;stroke-opacity:1" />
    <path
       id="path12"
       d="m 225.25,45 1.75,-1 0,2 0,2 -0.5,0.25 -0.5,0.25 -0.25,0.25 Q 225.5,49 224,54.5 q -1.5,5.5 -1.25,7.25 l 0.25,1.75 -0.5,1.25 -0.5,1.25 -5.5,-1 -5.5,-1 3.75,-7 q 3.75,-7 4.5,-9.5 L 220,45 l 1.75,0.5 1.75,0.5 1.75,-1 z"
       style="fill:#ff0000;fill-rule:evenodd;stroke:#000000;stroke-width:2px;stroke-linecap:butt;stroke-linejoin:miter;stroke-opacity:1" />
    <path
       id="path14"
       d="m 222.5,28 0.5,-2 1.5,0.25 q 1.5,0.25 8,1.75 6.5,1.5 8,3.5 l 1.5,2 -2.5,0.75 -2.5,0.75 0,-0.5 0,-0.5 -2,-0.25 q -2,-0.25 -8,1.75 l -6,2 -1.5,1.75 -1.5,1.75 -1,0.25 Q 216,41.5 214.5,41 l -1.5,-0.5 4,-3.5 4,-3.5 -1,-0.75 -1,-0.75 1.5,-1 1.5,-1 0.5,-2 z"
       style="fill:#ffff00;fill-rule:evenodd;stroke:#000000;stroke-width:2px;stroke-linecap:butt;stroke-linejoin:miter;stroke-opacity:1" />
    <path
       id="path16"
       d="m 237,34.5 0,0.5 -2,1.25 q -2,1.25 -5,4.5 l -3,3.25 -1.75,1 -1.75,1 -1.75,-0.5 L 220,45 219.75,44.5 q -0.25,-0.5 -1,-2 L 218,41 l 1.5,-1.75 1.5,-1.75 6,-2 q 6,-2 8,-1.75 l 2,0.25 0,0.5 z"
       style="fill:#ffff00;fill-rule:evenodd;stroke:#000000;stroke-width:2px;stroke-linecap:butt;stroke-linejoin:miter;stroke-opacity:1" />
    <path
       id="path19"
       d="m 217,30.25 2,1.75 1,0.75 1,0.75 -4,3.5 -4,3.5 1.5,0.5 q 1.5,0.5 2.5,0.25 l 1,-0.25 0.75,1.5 q 0.75,1.5 1,2 l 0.25,0.5 -0.75,2.5 q -0.75,2.5 -4.5,9.5 l -3.75,7 -0.75,0.5 -0.75,0.5 -0.75,0.75 q -0.75,0.75 -1.5,7 -0.75,6.25 -2.5,8 l -1.75,1.75 -1.5,0 q -1.5,0 -2,-4.75 Q 199,73 197.75,72.5 196.5,72 194.25,69.25 192,66.5 188.75,61.25 L 185.5,56 l 0,-1.5 q 0,-1.5 0.25,-8.5 l 0.25,-7 0.5,0 q 0.5,0 0.5,-2 l 0,-2 1.5,-1.25 q 1.5,-1.25 5,-3.75 3.5,-2.5 6,-3.5 l 2.5,-1 6.5,1.5 q 6.5,1.5 8.5,3.25 z M 199.75,34.5 202,33 l 0.5,3.75 Q 203,40.5 201,41 l -2,0.5 -0.75,-2.75 Q 197.5,36 199.75,34.5 z"
       style="fill:#ffff00;fill-rule:evenodd;stroke:#000000;stroke-width:2px;stroke-linecap:butt;stroke-linejoin:miter;stroke-opacity:1" />
    <path
       id="path21"
       d="M 199.75,34.5 202,33 l 0.5,3.75 Q 203,40.5 201,41 l -2,0.5 -0.75,-2.75 Q 197.5,36 199.75,34.5 z"
       style="fill:#ffffff;fill-rule:evenodd;stroke:#000000;stroke-width:2px;stroke-linecap:butt;stroke-linejoin:miter;stroke-opacity:1" />
    <path
       id="path23"
       d="m 218.5,23.25 4.5,2.75 -0.5,2 -0.5,2 -1.5,1 -1.5,1 -2,-1.75 Q 215,28.5 208.5,27 l -6.5,-1.5 -2.5,1 q -2.5,1 -6,3.5 -3.5,2.5 -5,3.75 L 187,35 l 0,2 q 0,2 -0.5,2 l -0.5,0 1.75,-7 q 1.75,-7 4.25,-10 2.5,-3 4.25,-5 l 1.75,-2 1.25,0 q 1.25,0 2.75,-1 1.5,-1 3.5,0.5 2,1.5 3.5,1 1.5,-0.5 3.25,2.25 1.75,2.75 6.25,5.5 z"
       style="fill:#ff0000;fill-rule:evenodd;stroke:#000000;stroke-width:2px;stroke-linecap:butt;stroke-linejoin:miter;stroke-opacity:1" />
  </g>
</svg>
